<svg xmlns="http://www.w3.org/2000/svg" viewBox="0 0 147.187 100" width="147.187" height="100"><defs><style>.cls-1{fill:#fff;fill-rule:evenodd}</style></defs><path class="cls-1" transform="translate(-1.469 -0.344)" d="M 4.451 65.614 v -7.537 a 6.081 6.081 0 0 0 1.977 1.48 a 6.356 6.356 0 0 0 2.7 0.522 a 6.844 6.844 0 0 0 3.087 -0.681 a 6.759 6.759 0 0 0 2.313 -1.867 a 8.541 8.541 0 0 0 1.447 -2.809 a 11.757 11.757 0 0 0 0.5 -3.508 a 14.032 14.032 0 0 0 -0.454 -3.752 a 7.99 7.99 0 0 0 -1.3 -2.734 a 5.486 5.486 0 0 0 -2.036 -1.666 a 6.153 6.153 0 0 0 -2.658 -0.564 a 6.38 6.38 0 0 0 -3.238 0.808 a 9.1 9.1 0 0 0 -2.5 2.136 l -0.242 -2.018 a 0.764 0.764 0 0 0 -0.808 -0.624 H 1.456 v 22.814 h 2.995 Z m 6.426 -20.339 a 3.307 3.307 0 0 1 1.363 1.119 a 5.6 5.6 0 0 1 0.85 1.96 a 12.1 12.1 0 0 1 0.294 2.86 a 7.937 7.937 0 0 1 -1.279 4.845 a 4.3 4.3 0 0 1 -3.651 1.7 a 5.178 5.178 0 0 1 -2.2 -0.454 a 4.814 4.814 0 0 1 -1.808 -1.564 V 47.5 a 7.4 7.4 0 0 1 2.027 -1.9 a 4.824 4.824 0 0 1 2.566 -0.673 a 4.533 4.533 0 0 1 1.838 0.348 Z m 6.964 -10.211 v 24.78 h 2.994 V 35.063 h -2.994 Z m 18.27 13.879 a 8.483 8.483 0 0 0 -0.387 -2.624 a 5.563 5.563 0 0 0 -1.144 -2.036 a 5.211 5.211 0 0 0 -1.867 -1.312 a 6.456 6.456 0 0 0 -2.54 -0.471 a 9.4 9.4 0 0 0 -3.617 0.673 a 9.732 9.732 0 0 0 -3.045 2.036 l 0.538 0.959 a 1.214 1.214 0 0 0 0.362 0.4 a 0.9 0.9 0 0 0 0.53 0.16 a 1.359 1.359 0 0 0 0.782 -0.278 q 0.4 -0.278 0.942 -0.622 a 6.982 6.982 0 0 1 1.3 -0.623 a 5.333 5.333 0 0 1 1.842 -0.277 a 3.08 3.08 0 0 1 2.515 1.024 a 4.637 4.637 0 0 1 0.85 3.022 V 50.3 a 22.041 22.041 0 0 0 -4.9 0.464 a 11.65 11.65 0 0 0 -3.238 1.19 a 4.886 4.886 0 0 0 -1.792 1.663 a 3.772 3.772 0 0 0 -0.555 1.95 a 4.939 4.939 0 0 0 0.379 2.017 A 3.977 3.977 0 0 0 24.083 59 a 4.229 4.229 0 0 0 1.506 0.836 a 6.05 6.05 0 0 0 1.859 0.278 a 8.648 8.648 0 0 0 1.775 -0.168 a 6.968 6.968 0 0 0 1.506 -0.5 a 7.512 7.512 0 0 0 1.346 -0.807 q 0.639 -0.479 1.312 -1.085 l 0.336 1.581 a 0.744 0.744 0 0 0 0.353 0.572 a 1.583 1.583 0 0 0 0.707 0.135 h 1.329 v -10.9 Z m -8.866 8.924 a 2.315 2.315 0 0 1 -0.875 -0.457 a 2.207 2.207 0 0 1 -0.589 -0.8 a 2.85 2.85 0 0 1 -0.219 -1.168 a 2.155 2.155 0 0 1 0.412 -1.286 a 3.284 3.284 0 0 1 1.321 -1 a 9.835 9.835 0 0 1 2.355 -0.685 a 20.085 20.085 0 0 1 3.516 -0.262 v 3.516 a 9.591 9.591 0 0 1 -1.035 0.959 a 6.534 6.534 0 0 1 -1.11 0.715 a 5.7 5.7 0 0 1 -1.236 0.454 a 6.1 6.1 0 0 1 -1.447 0.16 a 3.975 3.975 0 0 1 -1.093 -0.147 Z m 18.3 1.834 a 5.578 5.578 0 0 0 1.867 -1.136 l -0.875 -1.43 a 0.516 0.516 0 0 0 -0.421 -0.286 a 0.561 0.561 0 0 0 -0.311 0.126 q -0.177 0.126 -0.429 0.278 a 3.5 3.5 0 0 1 -0.6 0.278 a 2.377 2.377 0 0 1 -0.816 0.126 a 1.821 1.821 0 0 1 -1.346 -0.522 a 2.175 2.175 0 0 1 -0.521 -1.6 V 45.308 h 4.879 v -2.17 H 42.1 v -5.871 h -1.514 a 0.7 0.7 0 0 0 -0.471 0.16 a 0.635 0.635 0 0 0 -0.219 0.412 l -0.69 5.261 l -2.793 0.353 v 1.194 a 0.62 0.62 0 0 0 0.185 0.5 a 0.67 0.67 0 0 0 0.454 0.16 h 2.052 v 10.43 a 4.5 4.5 0 0 0 1.085 3.247 a 4.108 4.108 0 0 0 3.1 1.127 a 6.343 6.343 0 0 0 2.259 -0.411 Z m 6.291 0.143 V 45.308 h 4.828 v -2.17 h -4.925 v -1.564 a 5.924 5.924 0 0 1 0.244 -1.834 a 2.97 2.97 0 0 1 0.7 -1.195 a 2.654 2.654 0 0 1 1.085 -0.656 a 4.6 4.6 0 0 1 1.4 -0.2 h 0.522 a 3.289 3.289 0 0 0 0.757 -0.067 a 0.382 0.382 0 0 0 0.286 -0.4 l 0.067 -1.5 a 6.465 6.465 0 0 0 -2.12 -0.337 a 6.857 6.857 0 0 0 -2.422 0.4 a 4.989 4.989 0 0 0 -1.842 1.186 a 5.265 5.265 0 0 0 -1.178 1.918 a 7.587 7.587 0 0 0 -0.412 2.6 v 1.649 h -2.689 v 1.228 a 0.611 0.611 0 0 0 0.227 0.513 a 1.5 1.5 0 0 0 0.58 0.261 l 1.884 0.219 v 14.484 h 3.012 Z m 8.655 -16.688 a 7.194 7.194 0 0 0 -2.565 1.767 a 7.853 7.853 0 0 0 -1.626 2.766 a 11.8 11.8 0 0 0 0 7.259 a 7.862 7.862 0 0 0 1.632 2.759 a 7.1 7.1 0 0 0 2.566 1.758 a 9.572 9.572 0 0 0 6.746 0 a 7.022 7.022 0 0 0 2.556 -1.758 a 7.836 7.836 0 0 0 1.615 -2.759 a 11.969 11.969 0 0 0 0 -7.259 a 7.828 7.828 0 0 0 -1.615 -2.768 a 7.117 7.117 0 0 0 -2.557 -1.767 a 9.451 9.451 0 0 0 -6.748 0.001 Z M 61.647 57.3 a 4.185 4.185 0 0 1 -1.573 -1.253 a 5.517 5.517 0 0 1 -0.942 -2.01 a 11.979 11.979 0 0 1 0 -5.425 a 5.605 5.605 0 0 1 0.942 -2.027 a 4.16 4.16 0 0 1 1.573 -1.262 a 5.231 5.231 0 0 1 2.221 -0.437 a 4.367 4.367 0 0 1 3.768 1.7 a 7.9 7.9 0 0 1 1.245 4.744 a 7.829 7.829 0 0 1 -1.245 4.719 a 4.375 4.375 0 0 1 -3.768 1.691 a 5.226 5.226 0 0 1 -2.221 -0.44 Z m 14.5 2.54 V 48.992 a 6.819 6.819 0 0 1 1.758 -2.641 a 3.859 3.859 0 0 1 2.616 -0.908 a 4.566 4.566 0 0 1 1.363 0.16 a 2.61 2.61 0 0 0 0.723 0.16 a 0.506 0.506 0 0 0 0.522 -0.421 l 0.388 -2.242 a 4.472 4.472 0 0 0 -1.06 -0.446 a 5.093 5.093 0 0 0 -4.3 0.841 A 7.8 7.8 0 0 0 76 46.284 l -0.2 -2.658 a 1.137 1.137 0 0 0 -0.252 -0.639 a 0.948 0.948 0 0 0 -0.678 -0.187 h -1.716 v 17.043 h 2.995 Z m 11.036 0 v -12.7 a 6.749 6.749 0 0 1 1.741 -1.623 a 3.8 3.8 0 0 1 2.061 -0.6 a 2.926 2.926 0 0 1 2.406 1.009 a 4.776 4.776 0 0 1 0.824 3.062 v 10.855 h 2.995 V 48.992 a 4.924 4.924 0 0 1 0.294 -1.775 a 3.586 3.586 0 0 1 0.8 -1.27 a 3.384 3.384 0 0 1 1.169 -0.765 a 3.813 3.813 0 0 1 1.4 -0.261 a 3.142 3.142 0 0 1 2.541 1.035 a 4.594 4.594 0 0 1 0.874 3.037 v 10.85 h 2.995 V 48.992 a 8.976 8.976 0 0 0 -0.387 -2.751 a 5.583 5.583 0 0 0 -1.119 -2.027 A 4.748 4.748 0 0 0 104 42.961 a 6.3 6.3 0 0 0 -2.4 -0.429 a 6.876 6.876 0 0 0 -1.657 0.2 a 5.521 5.521 0 0 0 -1.539 0.639 a 5.428 5.428 0 0 0 -1.3 1.11 a 5.339 5.339 0 0 0 -0.934 1.6 a 5.4 5.4 0 0 0 -1.539 -2.591 a 4.035 4.035 0 0 0 -2.8 -0.959 a 4.97 4.97 0 0 0 -2.717 0.74 A 8.741 8.741 0 0 0 87 45.174 l -0.219 -1.75 a 0.764 0.764 0 0 0 -0.807 -0.622 H 84.19 v 17.041 h 2.994 Z m 44.944 -17.19 a 11.831 11.831 0 0 0 -2.582 -3.97 a 12.021 12.021 0 0 0 -4.013 -2.65 a 13.538 13.538 0 0 0 -5.206 -0.967 a 13.705 13.705 0 0 0 -5.215 0.959 a 11.977 11.977 0 0 0 -4.03 2.641 a 11.761 11.761 0 0 0 -2.59 3.97 a 13.8 13.8 0 0 0 0 9.892 a 11.694 11.694 0 0 0 6.62 6.628 a 14.636 14.636 0 0 0 10.421 0 a 11.686 11.686 0 0 0 6.6 -6.628 a 13.751 13.751 0 0 0 -0.005 -9.875 Z m -5.375 8.218 a 6.926 6.926 0 0 1 -1.354 2.465 a 5.764 5.764 0 0 1 -2.162 1.539 a 7.544 7.544 0 0 1 -2.91 0.53 a 7.653 7.653 0 0 1 -2.936 -0.53 a 5.745 5.745 0 0 1 -2.17 -1.539 a 6.926 6.926 0 0 1 -1.354 -2.465 a 11.66 11.66 0 0 1 0 -6.561 a 6.927 6.927 0 0 1 1.354 -2.465 a 5.828 5.828 0 0 1 2.17 -1.548 a 7.55 7.55 0 0 1 2.936 -0.538 a 7.442 7.442 0 0 1 2.91 0.538 a 5.848 5.848 0 0 1 2.162 1.548 a 6.927 6.927 0 0 1 1.354 2.465 a 11.66 11.66 0 0 1 0 6.561 Z m 21.567 -13.2 a 8.289 8.289 0 0 0 -1.489 -1.085 a 11.1 11.1 0 0 0 -1.792 -0.824 a 11.559 11.559 0 0 0 -2.027 -0.521 a 13.441 13.441 0 0 0 -2.195 -0.177 a 9.759 9.759 0 0 0 -3.584 0.614 a 8.032 8.032 0 0 0 -2.641 1.64 a 6.959 6.959 0 0 0 -1.632 2.338 a 6.848 6.848 0 0 0 -0.555 2.692 a 7.749 7.749 0 0 0 0.471 2.885 a 5.893 5.893 0 0 0 1.237 1.951 a 6.307 6.307 0 0 0 1.741 1.262 a 14.634 14.634 0 0 0 2 0.807 q 1.026 0.328 2 0.6 a 11.4 11.4 0 0 1 1.741 0.623 a 3.655 3.655 0 0 1 1.237 0.892 a 2.048 2.048 0 0 1 0.471 1.4 a 2.594 2.594 0 0 1 -0.858 2.162 a 3.779 3.779 0 0 1 -2.406 0.681 a 5.575 5.575 0 0 1 -1.985 -0.32 a 9.418 9.418 0 0 1 -1.489 -0.706 q -0.648 -0.387 -1.161 -0.707 a 1.916 1.916 0 0 0 -1.018 -0.32 a 1.476 1.476 0 0 0 -0.723 0.185 a 1.372 1.372 0 0 0 -0.522 0.488 l -1.682 2.658 a 8.859 8.859 0 0 0 1.7 1.312 a 13.334 13.334 0 0 0 2.086 1.018 a 13.846 13.846 0 0 0 2.3 0.664 a 11.945 11.945 0 0 0 2.33 0.236 a 10.327 10.327 0 0 0 3.726 -0.631 a 7.931 7.931 0 0 0 2.759 -1.733 a 7.431 7.431 0 0 0 1.707 -2.582 a 8.514 8.514 0 0 0 0.589 -3.18 a 6.551 6.551 0 0 0 -0.471 -2.616 a 5.815 5.815 0 0 0 -1.236 -1.842 a 6.723 6.723 0 0 0 -1.75 -1.245 a 18.035 18.035 0 0 0 -2.01 -0.85 q -1.026 -0.362 -2.011 -0.656 a 13.213 13.213 0 0 1 -1.749 -0.648 a 4.05 4.05 0 0 1 -1.237 -0.841 a 1.7 1.7 0 0 1 -0.471 -1.228 a 2.317 2.317 0 0 1 0.783 -1.842 a 3.545 3.545 0 0 1 2.38 -0.681 a 5.16 5.16 0 0 1 1.649 0.244 a 8.4 8.4 0 0 1 1.287 0.547 q 0.563 0.3 1.009 0.547 a 1.748 1.748 0 0 0 0.833 0.244 a 1.187 1.187 0 0 0 0.715 -0.2 a 2.149 2.149 0 0 0 0.53 -0.606 Z" /></svg>